# xmcd
#
# Track frame offsets:
# 150
# 12803
# 27936
# 45326
# 60989
# 78992
# 97358
# 112519
# 125925
# 141727
# 156944
# 171827
# 187490
# 204546
# 221658
# 236931
#
# Disc length: 3339 seconds
#
#
# Revision: 0
# Processed by: cddbd v1.5.2PL0 Copyright (c) Steve Scherf et al.
# Submitted via: FreeRIP 2.951 
#
DISCID=ec0d0910
DTITLE=Leandro and Leonardo - Seleção de Ouro Vol. 02
DYEAR=1900
DGENRE=Country
TTITLE0=Leandro and Leonardo - Rola pinga
TTITLE1=Leandro and Leonardo - Anarriê
TTITLE2=Leandro and Leonardo - Cerveja (remix DJ alessandro)
TTITLE3=Leandro and Leonardo - Cumade e cumpade (remix)
TTITLE4=Leandro and Leonardo - Dia de rodeio
TTITLE5=Leandro and Leonardo - Festa de rodeio
TTITLE6=Leandro and Leonardo - Mexe mexe
TTITLE7=Leandro and Leonardo - Ei, pissiu!!!
TTITLE8=Leandro and Leonardo - A malvada
TTITLE9=Leandro and Leonardo - Agua de côco
TTITLE10=Leandro and Leonardo - Boto pra Remexer
TTITLE11=Leandro and Leonardo - Namoro novo
TTITLE12=Leandro and Leonardo - Feitiço
TTITLE13=Leandro and Leonardo - Dona encrenca
TTITLE14=Leandro and Leonardo - Entre tapas e beijos
TTITLE15=Leandro and Leonardo - Cadê você
EXTD=
EXTT0=
EXTT1=
EXTT2=
EXTT3=
EXTT4=
EXTT5=
EXTT6=
EXTT7=
EXTT8=
EXTT9=
EXTT10=
EXTT11=
EXTT12=
EXTT13=
EXTT14=
EXTT15=
PLAYORDER=
